<svg xmlns="http://www.w3.org/2000/svg" width="96.924" height="95.981" viewBox="0 0 96.924 95.981"><defs><style>.a,.c,.d{fill:#fff;}.a{opacity:0.128;}.b{fill:#855aaf;}.c{opacity:0.6;}.e{fill:#fc6190;}</style></defs><g transform="translate(-91.028 -401.177)"><g transform="translate(91.028 444.066) rotate(-37)"><path class="a" d="M11.416.72c7.22-2.679,12.139,2.569,15.667,8.264,2.424,3.911,4.872,8.383,9.071,10.667,4.877,2.652,10.757.19,15.734-.8a14.8,14.8,0,0,1,15.275,5.6c8.3,10.793,3.135,28.07-7.612,35.207a30.014,30.014,0,0,1-2.943,1.715c-14.749,7.52-36.044,7.717-47.213-6.118a27.362,27.362,0,0,1-2.21-3.178,37.361,37.361,0,0,1-3.318-7.672C1.2,36.132-.583,27.133.176,18.409.794,11.285,4.6,3.254,11.416.72Z" transform="translate(0 0)"/></g><g transform="translate(-368.703 21.529)"><g transform="translate(488.165 422.024) rotate(-1)"><rect class="b" width="44.53" height="24.848" rx="3" transform="translate(0 0)"/><ellipse class="c" cx="2.214" cy="2.214" rx="2.214" ry="2.214" transform="translate(3.444 2.952)"/><ellipse class="c" cx="2.214" cy="2.214" rx="2.214" ry="2.214" transform="translate(36.903 2.952)"/><ellipse class="c" cx="2.214" cy="2.214" rx="2.214" ry="2.214" transform="translate(34.689 2.952)"/><rect class="d" width="24.11" height="2.46" rx="1.23" transform="translate(3.444 13.531)"/><rect class="d" width="7.627" height="1.476" rx="0.738" transform="translate(3.444 19.682)"/><rect class="d" width="7.627" height="1.476" rx="0.738" transform="translate(33.705 19.682)"/><rect class="d" width="13.039" height="1.476" rx="0.738" transform="translate(12.301 19.682)"/></g><g transform="matrix(0.966, 0.259, -0.259, 0.966, 483.804, 418.574)"><rect class="e" width="44.53" height="24.848" rx="3"/><ellipse class="c" cx="2.214" cy="2.214" rx="2.214" ry="2.214" transform="translate(3.444 2.952)"/><ellipse class="c" cx="2.214" cy="2.214" rx="2.214" ry="2.214" transform="translate(36.903 2.952)"/><ellipse class="c" cx="2.214" cy="2.214" rx="2.214" ry="2.214" transform="translate(34.689 2.952)"/><rect class="d" width="24.11" height="2.46" rx="1.23" transform="translate(3.444 13.531)"/><rect class="d" width="7.627" height="1.476" rx="0.738" transform="translate(3.444 19.682)"/><rect class="d" width="7.627" height="1.476" rx="0.738" transform="translate(33.705 19.682)"/><rect class="d" width="13.039" height="1.476" rx="0.738" transform="translate(12.301 19.682)"/></g></g></g></svg>