<svg xmlns="http://www.w3.org/2000/svg" xmlns:xlink="http://www.w3.org/1999/xlink" width="231.5" height="114" viewBox="0 0 231.5 114"><defs><style>.a{fill:#fff;}.b{fill:#f9f6fb;}.c{filter:url(#e);}.d{filter:url(#c);}.e{filter:url(#a);}</style><filter id="a" x="108.5" y="10" width="123" height="94" filterUnits="userSpaceOnUse"><feOffset input="SourceAlpha"/><feGaussianBlur stdDeviation="3" result="b"/><feFlood flood-opacity="0.161"/><feComposite operator="in" in2="b"/><feComposite in="SourceGraphic"/></filter><filter id="c" x="0" y="10" width="123" height="94" filterUnits="userSpaceOnUse"><feOffset input="SourceAlpha"/><feGaussianBlur stdDeviation="3" result="d"/><feFlood flood-opacity="0.161"/><feComposite operator="in" in2="d"/><feComposite in="SourceGraphic"/></filter><filter id="e" x="40.25" y="0" width="151" height="114" filterUnits="userSpaceOnUse"><feOffset input="SourceAlpha"/><feGaussianBlur stdDeviation="3" result="f"/><feFlood flood-opacity="0.161"/><feComposite operator="in" in2="f"/><feComposite in="SourceGraphic"/></filter></defs><g transform="translate(-70.75 -76)"><g transform="translate(188.25 95)"><g class="e" transform="matrix(1, 0, 0, 1, -117.5, -19)"><rect class="a" width="105" height="76" rx="2" transform="translate(117.5 19)"/></g><rect class="b" width="19" height="65" transform="translate(5 6)"/><g transform="translate(31 6)"><rect class="b" width="20" height="17" transform="translate(0)"/><rect class="b" width="20" height="16" transform="translate(0 34)"/><rect class="b" width="21" height="17" transform="translate(27)"/><rect class="b" width="21" height="16" transform="translate(27 34)"/><rect class="b" width="20" height="3" transform="translate(0 19)"/><rect class="b" width="20" height="3" transform="translate(0 53)"/><rect class="b" width="21" height="3" transform="translate(27 19)"/><rect class="b" width="21" height="3" transform="translate(27 53)"/><rect class="b" width="13" height="3" transform="translate(0 25)"/><rect class="b" width="13" height="3" transform="translate(0 58)"/><rect class="b" width="14" height="3" transform="translate(27 25)"/><rect class="b" width="14" height="3" transform="translate(27 58)"/></g></g><g transform="translate(79.75 95)"><g class="d" transform="matrix(1, 0, 0, 1, -9, -19)"><rect class="a" width="105" height="76" rx="2" transform="translate(9 19)"/></g><rect class="b" width="19" height="65" transform="translate(5 6)"/><g transform="translate(31 6)"><rect class="b" width="20" height="17" transform="translate(0)"/><rect class="b" width="20" height="16" transform="translate(0 34)"/><rect class="b" width="21" height="17" transform="translate(27)"/><rect class="b" width="21" height="16" transform="translate(27 34)"/><rect class="b" width="20" height="3" transform="translate(0 19)"/><rect class="b" width="20" height="3" transform="translate(0 53)"/><rect class="b" width="21" height="3" transform="translate(27 19)"/><rect class="b" width="21" height="3" transform="translate(27 53)"/><rect class="b" width="13" height="3" transform="translate(0 25)"/><rect class="b" width="13" height="3" transform="translate(0 58)"/><rect class="b" width="14" height="3" transform="translate(27 25)"/><rect class="b" width="14" height="3" transform="translate(27 58)"/></g></g><g class="c" transform="matrix(1, 0, 0, 1, 70.75, 76)"><rect class="a" width="133" height="96" rx="2" transform="translate(49.25 9)"/></g><rect class="b" width="24" height="81" transform="translate(127 93)"/><rect class="b" width="26" height="21" transform="translate(159 93)"/><rect class="b" width="26" height="21" transform="translate(159 135)"/><rect class="b" width="26" height="21" transform="translate(194 93)"/><rect class="b" width="26" height="21" transform="translate(194 135)"/><rect class="b" width="26" height="4" transform="translate(159 117)"/><rect class="b" width="26" height="4" transform="translate(159 159)"/><rect class="b" width="26" height="4" transform="translate(194 117)"/><rect class="b" width="26" height="4" transform="translate(194 159)"/><rect class="b" width="17" height="4" transform="translate(159 124)"/><rect class="b" width="17" height="4" transform="translate(159 166)"/><rect class="b" width="17" height="4" transform="translate(194 124)"/><rect class="b" width="17" height="4" transform="translate(194 166)"/></g></svg>