<svg xmlns="http://www.w3.org/2000/svg" width="34.902" height="21.574" viewBox="0 0 34.902 21.574"><defs><style>.a{fill:#ff5f00;}.b{fill:#eb001b;}.c{fill:#f79e1b;}</style></defs><g transform="translate(0 0)"><g transform="translate(0 0)"><rect class="a" width="9.437" height="16.96" transform="translate(12.731 2.307)"/><path class="b" d="M28.486,25.942a10.768,10.768,0,0,1,4.119-8.482,10.786,10.786,0,1,0,0,16.96,10.768,10.768,0,0,1-4.119-8.478Z" transform="translate(-15.156 -15.153)"/><path class="c" d="M90.852,25.937A10.786,10.786,0,0,1,73.4,34.415a10.786,10.786,0,0,0,0-16.96,10.786,10.786,0,0,1,17.452,8.478Z" transform="translate(-55.95 -15.148)"/><path class="c" d="M127.706,72.479v-.348h.14V72.06h-.356v.072h.153v.348Zm.692,0V72.06h-.108l-.126.3-.126-.3h-.1v.419h.078v-.315l.117.273h.08l.117-.273v.317Z" transform="translate(-93.835 -55.009)"/></g></g></svg>